<?xml version="1.0" standalone="no"?>
<!DOCTYPE svg PUBLIC "-//W3C//DTD SVG 20010904//EN"
 "http://www.w3.org/TR/2001/REC-SVG-20010904/DTD/svg10.dtd">
<svg version="1.0" xmlns="http://www.w3.org/2000/svg"
 width="1000.000000pt" height="1000.000000pt" viewBox="0 0 1000.000000 1000.000000"
 preserveAspectRatio="xMidYMid meet">
<metadata>
Created by potrace 1.11, written by Peter Selinger 2001-2013
</metadata>
<g transform="translate(0.000000,1000.000000) scale(0.100000,-0.100000)"
fill="#000000" stroke="none">
<path d="M2895 9950 c-82 -27 -267 -85 -410 -130 -143 -44 -287 -90 -321 -101
l-60 -19 -28 -128 c-15 -70 -36 -163 -46 -207 -11 -44 -30 -132 -44 -195 -14
-63 -48 -216 -76 -340 -28 -124 -84 -373 -125 -555 -41 -181 -92 -411 -115
-510 -40 -177 -299 -1333 -325 -1450 -7 -33 -25 -112 -38 -175 -24 -109 -103
-468 -168 -760 -17 -74 -34 -151 -39 -170 -6 -19 -12 -48 -14 -65 -3 -16 -10
-48 -15 -70 -5 -22 -8 -41 -6 -44 3 -2 0 -10 -6 -18 -6 -7 -8 -13 -5 -13 4 0
2 -8 -3 -18 -5 -10 -12 -36 -15 -58 -4 -22 -9 -51 -12 -64 -3 -14 -10 -43 -14
-65 -5 -22 -12 -51 -15 -65 -4 -14 -8 -38 -11 -55 -3 -16 -9 -43 -14 -60 -5
-16 -12 -48 -15 -70 -4 -22 -9 -49 -12 -60 -4 -11 -8 -24 -9 -30 -7 -38 -32
-157 -40 -187 -3 -13 -7 -34 -10 -48 -3 -14 -10 -43 -15 -65 -5 -22 -12 -51
-15 -65 -11 -55 -37 -168 -49 -215 -11 -39 -57 -250 -90 -405 -8 -39 -243
-1088 -410 -1830 -102 -453 -185 -831 -185 -840 0 -9 34 -52 76 -95 119 -126
578 -590 591 -598 7 -4 65 9 130 29 65 20 134 40 153 46 19 5 195 59 390 118
195 60 747 226 1225 370 1194 359 1900 571 3210 965 616 186 1163 350 1215
365 198 59 564 170 1450 442 503 154 926 284 940 287 15 5 31 21 41 42 9 19
71 234 139 478 l123 445 -75 70 c-68 65 -241 226 -328 306 -54 49 -104 97
-505 475 -93 88 -203 192 -244 231 -42 39 -97 91 -122 115 -41 39 -204 192
-344 324 -111 104 -322 303 -374 353 -91 86 -292 277 -341 322 -25 23 -105 99
-179 169 -73 69 -150 142 -171 161 -20 19 -100 94 -176 166 -77 72 -157 148
-179 169 -22 20 -101 95 -175 165 -74 70 -162 153 -195 184 -33 31 -59 61 -57
67 1 6 -1 8 -6 5 -4 -2 -41 27 -82 66 -41 38 -116 109 -167 156 -50 47 -90 90
-87 94 3 5 1 7 -4 6 -10 -3 -62 43 -296 266 -82 77 -166 157 -186 176 -20 19
-106 100 -190 180 -179 170 -208 197 -316 299 -44 42 -154 146 -245 232 -90
86 -186 178 -214 204 -27 25 -106 100 -175 165 -69 65 -145 137 -170 160 -25
23 -86 81 -136 129 -50 47 -151 142 -224 211 -73 69 -147 139 -164 155 -17 17
-101 95 -186 175 -187 174 -177 165 -283 268 -105 100 -101 100 -312 32z m785
-3042 c107 -99 249 -231 315 -293 66 -61 350 -325 630 -586 281 -260 701 -651
935 -868 234 -218 524 -487 645 -600 121 -112 249 -232 285 -265 36 -34 157
-147 269 -251 l204 -189 -39 -13 c-71 -22 -3671 -1089 -4082 -1209 -221 -64
-405 -115 -408 -112 -2 3 6 54 20 114 14 60 64 278 111 484 48 206 93 402 100
435 42 189 107 474 115 500 5 17 11 44 13 60 3 17 31 140 62 275 31 135 61
263 65 285 5 22 20 87 34 145 24 102 180 776 257 1110 20 91 86 374 145 630
59 256 109 480 112 498 2 17 7 32 11 32 3 0 94 -82 201 -182z"/>
<path d="M3696 6263 c-4 -21 -27 -118 -52 -216 -24 -98 -42 -182 -39 -187 3
-5 1 -10 -3 -12 -13 -5 -95 -356 -86 -369 4 -7 3 -9 -3 -6 -11 7 -27 -49 -17
-64 3 -5 1 -9 -4 -9 -8 0 -23 -52 -28 -100 0 -8 -4 -22 -7 -30 -9 -26 -38
-141 -41 -163 -2 -12 -6 -29 -9 -37 -15 -39 -57 -223 -52 -228 2 -3 1 -10 -4
-16 -7 -10 -15 -38 -36 -131 -2 -11 -34 -141 -70 -290 -37 -148 -67 -282 -68
-297 -1 -16 -5 -28 -8 -28 -7 0 -20 -53 -24 -95 -1 -11 -5 -27 -9 -36 -4 -8
-8 -29 -9 -45 -1 -16 -5 -31 -8 -34 -6 -5 -23 -72 -104 -420 -70 -297 -81
-350 -75 -350 4 0 259 74 566 166 307 91 604 178 659 194 55 15 139 40 188 54
48 14 124 37 170 50 79 23 670 199 1232 366 149 44 274 82 279 83 8 3 -301
313 -504 507 -25 24 -220 215 -435 424 -214 210 -473 462 -575 562 -458 447
-567 553 -620 604 -31 30 -89 86 -127 123 l-70 69 -7 -39z"/>
</g>
</svg>
